<svg width="240" height="240" viewBox="0 0 240 240" fill="none" xmlns="http://www.w3.org/2000/svg">
<g opacity="0.16">
<mask id="mask0" mask-type="alpha" maskUnits="userSpaceOnUse" x="0" y="0" width="240" height="240">
<rect width="240" height="240" fill="white"/>
</mask>
<g mask="url(#mask0)">
<path d="M331.123 35.9655C331.156 52.8343 325.148 69.1573 314.185 81.9785L313.612 82.5823L306.335 89.8888L305.973 90.1606L229.043 167.151L203.682 192.542L158.091 146.922L183.453 121.5L203.682 141.759L240.999 104.381L281.819 63.5914L287.586 57.8247C292.215 51.9228 294.833 44.6934 295.056 37.1956C295.279 29.6979 293.095 22.3258 288.824 16.1594C285.876 11.9469 282.068 8.40708 277.653 5.77331C269.978 1.30018 260.898 -0.111946 252.228 1.81916C243.558 3.75026 235.935 8.88235 230.885 16.1896C230.044 12.4018 228.934 8.67873 227.564 5.0487C224.397 -3.4489 219.914 -11.3959 214.279 -18.5012C227.085 -29.2914 243.305 -35.1866 260.051 -35.1371C262.556 -35.1371 265.002 -35.1371 267.417 -34.7748C284.9 -32.9664 301.092 -24.7386 312.859 -11.6828C324.627 1.37296 331.134 18.3288 331.123 35.9051V35.9655Z" fill="#229BD8"/>
<path d="M215.758 16.9438C212.909 6.69706 207.795 -2.77911 200.794 -10.7856C193.793 -18.792 185.084 -25.1244 175.309 -29.3155C165.534 -33.5067 154.943 -35.4496 144.317 -35.001C133.691 -34.5523 123.301 -31.7236 113.914 -26.7234C104.527 -21.7232 96.3826 -14.6793 90.0816 -6.1112C83.7805 2.45686 79.4835 12.3304 77.5078 22.7808C75.5321 33.2312 75.928 43.992 78.6662 54.269C81.4045 64.546 86.4153 74.0771 93.329 82.159L101.149 89.9486L121.921 110.751L147.282 136.112L160.869 122.526L172.795 110.751L193.567 89.9486L201.387 82.159C202.202 81.223 203.017 80.2267 203.772 79.1397C213.299 66.7431 218.448 51.5388 218.415 35.9045C218.38 29.4939 217.487 23.117 215.758 16.9438ZM174.667 58.0354L169.323 63.4096L147.282 85.3593L125.514 63.5908L119.717 57.7637C115.629 52.574 113.088 46.3362 112.385 39.767C111.683 33.1979 112.848 26.5639 115.747 20.6273C118.646 14.6908 123.161 9.69245 128.773 6.20668C134.385 2.72092 140.867 0.889145 147.474 0.921814C154.08 0.954483 160.543 2.85027 166.121 6.39137C171.698 9.93246 176.163 14.9752 179.003 20.9401C181.844 26.9051 182.943 33.5503 182.176 40.1122C181.409 46.674 178.806 52.8864 174.667 58.0354Z" fill="#229BD8"/>
</g>
</g>
</svg>
